<svg width="160" height="52" viewBox="0 0 160 52" fill="none" xmlns="http://www.w3.org/2000/svg">
<path fill-rule="evenodd" clip-rule="evenodd" d="M154.089 35.1826V38.0814H0V35.1826H154.089Z" fill="#A7A9AC"/>
<path d="M159.645 5.55466C159.403 5.12551 159.081 4.80162 158.661 4.5749C158.242 4.34818 157.807 4.23482 157.355 4.23482C156.904 4.23482 156.468 4.34818 156.049 4.5749C155.629 4.80162 155.307 5.1336 155.065 5.55466C154.831 5.98381 154.71 6.42915 154.71 6.89069C154.71 7.35223 154.831 7.79757 155.057 8.21862C155.291 8.63968 155.621 8.96356 156.041 9.19838C156.46 9.4332 156.895 9.55466 157.363 9.55466C157.831 9.55466 158.266 9.4332 158.678 9.19838C159.097 8.96356 159.419 8.63968 159.661 8.21862C159.895 7.79757 160.008 7.35223 160.008 6.89069C160.008 6.42915 159.887 5.98381 159.653 5.55466H159.645ZM159.21 7.95951C159.024 8.29959 158.758 8.5587 158.419 8.75304C158.081 8.93927 157.726 9.03644 157.363 9.03644C157 9.03644 156.637 8.93927 156.307 8.75304C155.976 8.5668 155.71 8.29959 155.525 7.95951C155.339 7.61943 155.242 7.26316 155.242 6.89069C155.242 6.51822 155.339 6.16194 155.533 5.81376C155.726 5.47368 155.992 5.20648 156.323 5.02834C156.662 4.8502 157.008 4.75304 157.371 4.75304C157.734 4.75304 158.089 4.8421 158.419 5.02834C158.758 5.21457 159.016 5.47368 159.21 5.81376C159.403 6.15385 159.5 6.51822 159.5 6.89069C159.5 7.26316 159.411 7.61943 159.218 7.95951H159.21ZM75.4037 11.3603C75.7746 12.583 75.9601 14.0243 75.9601 15.6842V30.9717C75.9601 31.1255 75.9278 31.2794 75.8714 31.4251C75.823 31.5547 75.7424 31.6842 75.6375 31.8057C75.5327 31.9352 75.4117 32.0324 75.2827 32.1053C75.1456 32.1781 75.0005 32.2105 74.8473 32.2105H71.2186C71.0573 32.2105 70.9041 32.1781 70.7671 32.1053C70.638 32.0324 70.5171 31.9352 70.4122 31.7976C70.3155 31.6761 70.2429 31.5466 70.1865 31.417C70.1381 31.2713 70.1058 31.1255 70.1058 30.9717V15.7166C70.1058 15.1741 70.0736 14.6883 70.0171 14.2591C69.9607 13.8381 69.872 13.4737 69.7591 13.166C69.6543 12.8745 69.5091 12.6154 69.3317 12.4049C69.1543 12.1943 68.9446 12.0243 68.7027 11.8947C68.4528 11.7571 68.1463 11.6518 67.7915 11.587C67.4206 11.5142 66.9932 11.4818 66.5094 11.4818C65.9127 11.4818 65.3079 11.5223 64.6789 11.5951C64.1306 11.6599 63.5662 11.749 62.9856 11.8704V30.9798C62.9856 31.1417 62.9614 31.3036 62.913 31.4494C62.8646 31.5951 62.784 31.7328 62.6792 31.8462C62.5743 31.9676 62.4534 32.0648 62.3163 32.1296C62.1792 32.1943 62.026 32.2267 61.8647 32.2267H58.2522C58.0909 32.2267 57.9377 32.1943 57.7925 32.1215C57.6555 32.0486 57.5345 31.9514 57.4377 31.8219C57.341 31.6923 57.2684 31.5627 57.22 31.4332C57.1716 31.2874 57.1394 31.1417 57.1394 30.9879V8.48583C57.1394 8.18623 57.2362 7.92712 57.4297 7.7166C57.6071 7.53036 57.849 7.38461 58.1715 7.29555C58.8247 7.10121 59.5101 6.92308 60.2197 6.76923C60.9374 6.60729 61.6712 6.47773 62.4211 6.35627C63.1872 6.24291 63.9129 6.15385 64.6225 6.09717C65.3321 6.04049 66.0095 6.0081 66.6626 6.0081C69.8397 6.0081 72.1782 6.77733 73.6861 8.32389C74.4441 9.10121 75.0166 10.1134 75.3956 11.3522L75.4037 11.3603ZM53.0833 11.3603C52.7124 10.5182 52.2447 9.76518 51.6964 9.10931C51.14 8.45344 50.503 7.88664 49.7692 7.417C49.0354 6.94737 48.229 6.59919 47.342 6.36437C46.455 6.12955 45.5035 6.01619 44.4713 6.01619C43.4392 6.01619 42.5038 6.12955 41.6248 6.36437C40.7459 6.59919 39.9314 6.94737 39.1896 7.417C38.4558 7.88664 37.8026 8.45344 37.2462 9.10931C36.6898 9.76518 36.2302 10.5182 35.8593 11.3603C35.4884 12.1943 35.2142 13.0769 35.0287 14.0162C34.8433 14.9555 34.7546 15.9352 34.7546 16.9636V21.587C34.7546 22.6154 34.8513 23.6032 35.0287 24.5425C35.2142 25.4818 35.4884 26.3725 35.8593 27.2065C36.2302 28.0486 36.6898 28.7935 37.2462 29.4494C37.8026 30.1134 38.4558 30.6721 39.1896 31.1498C39.9314 31.6194 40.7378 31.9676 41.6248 32.2024C42.5038 32.4291 43.4553 32.5506 44.4713 32.5506C45.4873 32.5506 46.455 32.4372 47.342 32.2024C48.229 31.9676 49.0354 31.6194 49.7692 31.1498C50.503 30.6802 51.1481 30.1134 51.6964 29.4575C52.2447 28.8016 52.7124 28.0486 53.0833 27.2065C53.4543 26.3725 53.7365 25.4899 53.922 24.5587C54.1074 23.6194 54.2042 22.6316 54.2042 21.5951V16.9717C54.2042 15.9352 54.1074 14.9474 53.922 14.0081C53.7365 13.0769 53.4543 12.1943 53.0833 11.3603ZM48.35 21.5951C48.35 22.4534 48.2613 23.2146 48.0839 23.8866C47.9145 24.5506 47.6565 25.1174 47.3178 25.6032C46.9872 26.0729 46.584 26.421 46.1163 26.6559C45.6406 26.8907 45.0922 27.0121 44.4633 27.0121C43.8343 27.0121 43.294 26.8907 42.8183 26.6559C42.3506 26.421 41.9474 26.0729 41.6248 25.6032C41.2862 25.1174 41.0281 24.5506 40.8588 23.8866C40.6814 23.2146 40.6007 22.4534 40.6007 21.5951V16.9717C40.6007 16.1134 40.6894 15.3522 40.8588 14.6802C41.0281 14.0162 41.2862 13.4494 41.6248 12.9636C41.9474 12.4939 42.3506 12.1457 42.8183 11.9109C43.294 11.6761 43.8423 11.5547 44.4713 11.5547C45.1003 11.5547 45.6647 11.6761 46.1324 11.9109C46.6001 12.1457 47.0033 12.4939 47.3259 12.9636C47.6645 13.4413 47.9145 14.0162 48.0839 14.6802C48.2613 15.3522 48.3419 16.1134 48.3419 16.9717V21.5951H48.35ZM31.2549 11.3603C31.6258 12.583 31.8113 14.0243 31.8113 15.6842V30.9717C31.8113 31.1255 31.779 31.2794 31.7226 31.4251C31.6742 31.5547 31.5936 31.6842 31.4888 31.8057C31.3839 31.9352 31.263 32.0324 31.134 32.1053C30.9969 32.1781 30.8437 32.2105 30.6904 32.2105H27.0618C26.9005 32.2105 26.7473 32.1781 26.6102 32.1053C26.4812 32.0324 26.3602 31.9352 26.2635 31.7976C26.1667 31.6761 26.0941 31.5466 26.0458 31.417C25.9893 31.2713 25.9651 31.1255 25.9651 30.9717V15.7166C25.9651 15.1741 25.9329 14.6883 25.8764 14.2591C25.82 13.8381 25.7313 13.2632 25.6184 12.9555C25.5136 12.6559 25.3684 12.4049 25.191 12.1943C25.0136 11.9838 24.8039 11.8138 24.562 11.6842C24.3121 11.5466 24.0056 11.4413 23.6508 11.3765C23.2799 11.3036 22.8525 11.2713 22.3687 11.2713C21.772 11.2713 21.1511 11.2632 20.3931 11.417C19.7964 11.5385 19.5303 11.6923 18.9255 11.9514C18.9255 11.9514 18.74 12.0567 18.5062 12.2024C18.732 13.2308 18.8529 14.3887 18.8529 15.6923V30.9798C18.8529 31.1336 18.8207 31.2874 18.7642 31.4332C18.7078 31.5627 18.6352 31.6923 18.5304 31.8138C18.4256 31.9433 18.3046 32.0405 18.1756 32.1134C18.0385 32.1862 17.8853 32.2186 17.7321 32.2186H14.1034C13.9421 32.2186 13.797 32.1862 13.6518 32.1134C13.5228 32.0405 13.4019 31.9433 13.297 31.8057C13.2003 31.6842 13.1277 31.5547 13.0793 31.4251C13.0309 31.2794 12.9987 31.1336 12.9987 30.9798V15.7247C12.9987 15.1822 12.9664 14.6964 12.91 14.2672C12.8535 13.8462 12.7648 13.4818 12.6519 13.1741C12.5471 12.8826 12.402 12.6235 12.2246 12.413C12.0472 12.2024 11.8375 12.0324 11.5956 11.9028C11.3456 11.7652 11.0392 11.668 10.6844 11.5951C10.3135 11.5223 9.88609 11.4899 9.40227 11.4899C8.80556 11.4899 8.20078 11.5223 7.57181 11.6032C7.02348 11.668 6.45902 11.7571 5.87843 11.8785V30.9879C5.87843 31.1498 5.85424 31.3117 5.80586 31.4575C5.75748 31.6032 5.67684 31.7409 5.57201 31.8542C5.46719 31.9757 5.34623 32.0729 5.20915 32.1376C5.07206 32.2024 4.91885 32.2348 4.75758 32.2348H1.1531C0.991831 32.2348 0.83862 32.2024 0.693474 32.1296C0.556391 32.0567 0.443499 31.9595 0.338671 31.83C0.241906 31.7004 0.169333 31.5708 0.120951 31.4413C0.0645048 31.2955 0.0403137 31.1498 0.0403137 30.9959V8.48583C0.0403137 8.18623 0.137078 7.92712 0.330607 7.7166C0.508008 7.53036 0.766047 7.36842 1.08053 7.25506C1.74176 7.01215 2.28202 6.8421 2.99163 6.66397C3.75768 6.46154 4.59631 6.26721 5.33817 6.15385C6.10422 6.04049 6.83802 5.95142 7.53956 5.89474C8.24916 5.83806 8.92651 5.80567 9.57967 5.80567C11.894 5.80567 13.7486 6.33198 15.1678 7.21457C15.8936 6.81781 16.837 6.45344 17.4418 6.25101C18.1353 6.0081 19.7803 5.65182 20.4899 5.59514C21.1995 5.53846 22.1026 5.48988 22.7477 5.48988C25.9248 5.48988 28.0375 6.79352 29.5454 8.33198C30.3034 9.10931 30.8759 10.1215 31.2549 11.3603ZM153.162 9.67611C152.823 9.02834 152.412 8.46154 151.92 7.97571C151.436 7.48988 150.88 7.09312 150.243 6.77733C149.622 6.46964 148.937 6.23482 148.195 6.08097C147.453 5.92712 146.646 5.84615 145.784 5.84615C145.074 5.84615 144.389 5.87854 143.727 5.95142C143.066 6.02429 142.429 6.12955 141.824 6.2753C141.228 6.41295 140.671 6.5668 140.171 6.72874C139.663 6.89069 139.204 7.07692 138.784 7.26316C138.615 7.34413 138.47 7.4251 138.341 7.51417C138.204 7.61134 138.091 7.7247 138.01 7.83806C137.922 7.95142 137.865 8.08097 137.817 8.22672C137.776 8.36437 137.752 8.51822 137.752 8.68826V11.2874C137.752 11.7166 137.865 12.0162 138.091 12.2024C138.317 12.3887 138.623 12.4211 139.01 12.3077H139.018C140.066 11.9433 141.099 11.668 142.123 11.4899C143.147 11.3117 144.171 11.2227 145.179 11.2227C145.768 11.2227 146.267 11.2794 146.679 11.3927C147.066 11.498 147.38 11.6599 147.614 11.8704C147.84 12.0729 148.009 12.3644 148.122 12.753C148.251 13.1741 148.316 13.7004 148.316 14.332V16.251H145.889C145.018 16.251 144.211 16.2915 143.469 16.3644C142.728 16.4372 142.058 16.5587 141.462 16.7125C140.857 16.8664 140.3 17.0607 139.808 17.2955C139.309 17.5304 138.865 17.8138 138.478 18.1376C138.091 18.4615 137.76 18.8259 137.478 19.2227C137.196 19.6194 136.97 20.0567 136.793 20.5263C136.446 21.4575 136.277 22.5668 136.277 23.8785V24.081C136.277 24.9636 136.365 26.5587 136.535 27.2713C136.704 28 136.97 28.6397 137.309 29.1903C137.655 29.7571 138.107 30.2348 138.639 30.6397C139.171 31.0445 139.792 31.3684 140.502 31.6194C141.203 31.8704 142.002 32.0567 142.905 32.1862C143.8 32.3077 144.792 32.3725 145.88 32.3725C146.679 32.3725 147.413 32.3482 148.09 32.2996C148.759 32.251 149.38 32.1862 149.936 32.0972C150.493 32 151.057 31.8866 151.63 31.7571C152.202 31.6194 152.775 31.4656 153.355 31.2955C153.501 31.2551 153.63 31.1984 153.734 31.1336C153.855 31.0607 153.952 30.9555 154.009 30.8421C154.065 30.7449 154.097 30.6235 154.122 30.4777C154.146 30.3482 154.154 30.2024 154.154 30.0324V14.3239C154.154 13.417 154.073 12.583 153.904 11.8057C153.734 11.0202 153.485 10.3077 153.146 9.66801L153.162 9.67611ZM148.324 27.1741C148.033 27.2551 147.719 27.3117 147.372 27.3603C146.929 27.417 146.05 27.4494 145.51 27.4494C144.969 27.4494 144.493 27.4332 144.09 27.3846C143.703 27.3441 143.373 27.2794 143.107 27.1984C142.865 27.1255 142.655 27.0283 142.486 26.8988C142.324 26.7773 142.195 26.6316 142.107 26.4696C141.905 26.1053 141.8 24.7611 141.8 24.0162V23.7652C141.8 23.3522 141.824 22.9798 141.865 22.6721C141.905 22.3644 141.97 22.1053 142.05 21.8947C142.123 21.7085 142.236 21.5385 142.389 21.4008C142.55 21.2551 142.752 21.1336 142.994 21.0283C143.526 20.8178 144.364 20.7125 145.51 20.7125H148.316V27.1903L148.324 27.1741ZM132.737 11.1984C133.108 12.4211 133.293 13.8623 133.293 15.5223V30.8097C133.293 30.9636 133.269 31.1174 133.204 31.2632C133.148 31.4008 133.075 31.5223 132.97 31.6437C132.866 31.7733 132.745 31.8704 132.616 31.9433C132.479 32.0162 132.325 32.0486 132.172 32.0486H128.543C128.382 32.0486 128.229 32.0162 128.092 31.9433C127.963 31.8704 127.842 31.7733 127.745 31.6356C127.648 31.5142 127.576 31.3846 127.519 31.2551C127.471 31.1093 127.439 30.9636 127.439 30.8097V15.5547C127.439 15.0121 127.406 14.5263 127.35 14.0972C127.294 13.6761 127.205 13.3117 127.092 13.004C126.987 12.7125 126.842 12.4534 126.665 12.2429C126.487 12.0324 126.278 11.8623 126.036 11.7328C125.786 11.5951 125.479 11.498 125.124 11.4251C124.754 11.3522 124.326 11.3198 123.842 11.3198C123.246 11.3198 122.641 11.3522 122.012 11.4332C121.464 11.498 120.899 11.587 120.319 11.7085V30.8178C120.319 30.9879 120.294 31.1417 120.238 31.2874C120.189 31.4332 120.109 31.5708 120.004 31.6842C119.899 31.8057 119.778 31.9028 119.641 31.9676C119.504 32.0324 119.351 32.0648 119.19 32.0648H115.577C115.416 32.0648 115.254 32.0324 115.117 31.9595C114.98 31.8866 114.859 31.7895 114.763 31.6599C114.666 31.5304 114.593 31.4008 114.545 31.2713C114.488 31.1255 114.464 30.9798 114.464 30.8259V8.32389C114.464 8.02429 114.561 7.76518 114.755 7.55466C114.932 7.36842 115.182 7.22267 115.496 7.1336C116.15 6.93927 116.835 6.76113 117.553 6.60729C118.27 6.44534 119.004 6.31579 119.746 6.19433C120.512 6.08097 121.246 5.9919 121.947 5.93522C122.657 5.87854 123.334 5.84615 123.987 5.84615C127.165 5.84615 129.503 6.61538 131.011 8.16194C131.769 8.93927 132.341 9.95142 132.72 11.1903L132.737 11.1984ZM92.6519 28.5182V31.1984C92.6519 31.5061 92.5552 31.7571 92.3616 31.9595C92.1923 32.1376 91.9423 32.251 91.6198 32.3077C91.6198 32.3482 90.128 32.3968 89.999 32.4049C89.499 32.4049 88.9829 32.4858 88.4749 32.4858C82.8223 32.4858 81.8305 30.6397 81.8305 25.4413V11.1741H78.8469C78.7098 11.0283 78.2905 11.0121 78.0728 10.7854C77.8792 10.5749 77.7825 10.3077 77.7825 9.97571V7.50607C77.7825 7.35223 77.8067 7.19838 77.8631 7.05263C77.9115 6.91498 77.9921 6.77733 78.097 6.66397C78.2018 6.54251 78.3227 6.45344 78.4679 6.39676C78.605 6.34008 78.7501 6.30769 78.9114 6.30769H81.8385V1.88664C81.8385 1.55466 81.9353 1.28745 82.1288 1.07692C82.3062 0.882591 82.5723 0.753036 82.9029 0.696356L86.5396 0H86.5719H86.5961H86.7654C87.0638 0 87.2976 0.0890688 87.467 0.267206C87.6363 0.445344 87.7169 0.688259 87.7169 0.995951V6.30769H91.3456C91.515 6.30769 91.6601 6.33198 91.7972 6.38866C91.9423 6.44534 92.0633 6.52632 92.1681 6.63968C92.2729 6.75304 92.3536 6.88259 92.402 7.03644C92.4503 7.18219 92.4745 7.33603 92.4745 7.50607V10.0243C92.4745 10.1862 92.4423 10.3401 92.3858 10.4858C92.3294 10.6316 92.2487 10.7611 92.1439 10.8745C92.0391 10.9879 91.9181 11.0769 91.7811 11.1417C91.644 11.2065 91.4988 11.2389 91.3456 11.2389H87.7169V25.4494C87.7169 25.9676 87.7411 26.3725 87.7734 26.6802C87.8056 26.9555 87.854 27.1417 87.9105 27.2308C88.0637 27.4737 88.6846 27.4656 88.9104 27.4656H91.4262C91.773 27.4656 92.0472 27.5385 92.2407 27.6923C92.4665 27.8704 92.6439 28.1862 92.6439 28.5182H92.6519ZM110.529 9.67611C110.19 9.02834 109.779 8.46154 109.287 7.97571C108.804 7.48988 108.239 7.09312 107.61 6.77733C106.989 6.46964 106.304 6.23482 105.554 6.08097C104.812 5.92712 104.006 5.84615 103.143 5.84615C102.433 5.84615 101.748 5.87854 101.087 5.95142C100.425 6.02429 99.7883 6.12955 99.1835 6.2753C98.5868 6.41295 98.0304 6.5668 97.5305 6.72874C97.0305 6.89069 96.5628 7.07692 96.1435 7.26316C95.9742 7.34413 95.829 7.4251 95.7 7.51417C95.5629 7.61134 95.45 7.7247 95.3694 7.83806C95.2807 7.95142 95.2162 8.08097 95.1759 8.22672C95.1356 8.37247 95.1194 8.52631 95.1194 8.68826V11.2874C95.1194 12.2267 95.5387 12.5668 96.3774 12.3077H96.3854C97.4337 11.9433 98.4659 11.668 99.49 11.4899C100.514 11.3117 101.538 11.2227 102.554 11.2227C103.143 11.2227 103.635 11.2794 104.054 11.3927C104.449 11.498 104.764 11.6599 104.989 11.8704C105.207 12.0729 105.385 12.3644 105.497 12.753C105.618 13.1741 105.683 13.7004 105.683 14.332V16.251H103.256C102.385 16.251 101.578 16.2915 100.845 16.3644C100.111 16.4372 99.4335 16.5587 98.8368 16.7125C98.232 16.8664 97.6756 17.0607 97.1837 17.2955C96.6838 17.5304 96.2403 17.8138 95.8532 18.1376C95.4662 18.4615 95.1356 18.8259 94.8533 19.2227C94.5711 19.6194 94.3453 20.0567 94.176 20.5263C93.8292 21.4575 93.6599 22.5668 93.6599 23.8785V24.081C93.6599 24.9636 93.7486 26.5587 93.9179 27.2713C94.0873 28 94.3453 28.6397 94.6921 29.1903C95.0469 29.7571 95.4904 30.2348 96.0226 30.6397C96.5548 31.0445 97.1757 31.3684 97.8853 31.6194C98.5868 31.8704 99.3851 32.0567 100.288 32.1862C101.183 32.3077 102.175 32.3725 103.256 32.3725C104.054 32.3725 104.788 32.3482 105.465 32.2996C106.134 32.251 106.755 32.1862 107.312 32.0972C107.868 32 108.433 31.8866 109.005 31.7571C109.578 31.6194 110.158 31.4656 110.731 31.2955C110.876 31.2551 111.005 31.1984 111.11 31.1336C111.239 31.0526 111.327 30.9555 111.392 30.834C111.481 30.6559 111.529 30.3887 111.529 30.0243V14.3158C111.529 13.4089 111.448 12.5749 111.279 11.7976C111.11 11.0121 110.852 10.2996 110.521 9.65992L110.529 9.67611ZM105.683 27.1741C105.401 27.2551 105.078 27.3117 104.739 27.3603C104.296 27.417 103.417 27.4494 102.877 27.4494C102.336 27.4494 101.861 27.4332 101.457 27.3846C101.07 27.3441 100.74 27.2794 100.474 27.1984C100.232 27.1255 100.022 27.0283 99.8528 26.8988C99.6916 26.7773 99.5625 26.6316 99.4738 26.4696C99.2722 26.1053 99.1674 24.7611 99.1674 24.0162V23.7652C99.1674 23.3522 99.1916 22.9798 99.2319 22.6721C99.2722 22.3644 99.3367 22.1053 99.4174 21.8947C99.49 21.7085 99.6028 21.5385 99.7561 21.4008C99.9093 21.2551 100.119 21.1336 100.361 21.0283C100.893 20.8178 101.74 20.7125 102.885 20.7125H105.691V27.1903L105.683 27.1741ZM158.073 7.40081C157.992 7.29555 157.928 7.22267 157.879 7.18219C157.831 7.1417 157.766 7.10931 157.686 7.07692C157.928 7.04453 158.113 6.95546 158.242 6.80162C158.379 6.65587 158.444 6.48583 158.444 6.2834C158.444 6.13765 158.411 6 158.339 5.87854C158.266 5.75708 158.186 5.66802 158.081 5.61134C157.976 5.55466 157.831 5.51417 157.637 5.49798C157.573 5.49798 157.274 5.49798 156.734 5.49798H156.162V8.31579H156.734V7.15789H156.879C157.041 7.15789 157.17 7.19838 157.274 7.27935C157.379 7.36032 157.508 7.55466 157.67 7.86235L157.903 8.31579H158.613L158.282 7.74899C158.161 7.54656 158.097 7.4332 158.073 7.40891V7.40081ZM157.573 6.67206C157.492 6.69636 157.291 6.71255 156.96 6.71255H156.726V5.94332H156.96C157.283 5.94332 157.492 5.95951 157.573 5.98381C157.662 6.0081 157.718 6.05668 157.766 6.11336C157.815 6.17004 157.831 6.24291 157.831 6.32389C157.831 6.40486 157.807 6.47773 157.758 6.54251C157.71 6.60729 157.653 6.64777 157.573 6.67206Z" fill="#04192F"/>
<path d="M71.7186 46.478V50.2675H70.638V46.7047C70.638 46.0488 70.5413 45.5954 70.3477 45.3363C70.1542 45.0772 69.8236 44.9476 69.364 44.9476C69.114 44.9476 68.856 45.0205 68.5899 45.1744C68.3238 45.3201 68.1141 45.5063 67.969 45.725V50.2756H66.8884V44.1541H67.6303L67.969 44.9476C68.3238 44.3484 68.9124 44.0408 69.7188 44.0408C71.0574 44.0408 71.7186 44.8586 71.7186 46.4861V46.478ZM78.1534 49.8302V50.3727C77.7099 50.3727 77.3874 50.308 77.1696 50.1865C76.9519 50.065 76.7987 49.8545 76.702 49.563C76.2665 50.1055 75.6053 50.3808 74.7183 50.3808C74.2345 50.3808 73.8232 50.2027 73.4765 49.8545C73.1297 49.5063 72.9523 49.0691 72.9523 48.5509C72.9523 47.9274 73.2265 47.4092 73.7668 46.98C74.307 46.5509 75.0005 46.3322 75.8391 46.3322C76.0649 46.3322 76.323 46.3808 76.6133 46.478C76.6133 45.4901 76.1778 44.9962 75.2908 44.9962C74.6135 44.9962 74.0974 45.1744 73.7345 45.5468L73.2749 44.6399C73.4845 44.4699 73.7668 44.3322 74.1296 44.2108C74.4925 44.0893 74.8392 44.0327 75.1698 44.0327C76.0569 44.0327 76.6939 44.2351 77.0971 44.6399C77.5003 45.0448 77.6938 45.6845 77.6938 46.5671V48.7614C77.6938 49.2958 77.8551 49.6602 78.1695 49.8383L78.1534 49.8302ZM76.5971 47.2553C76.2584 47.1825 76.0165 47.142 75.8795 47.142C75.3311 47.142 74.8876 47.2877 74.5409 47.563C74.1941 47.8464 74.0248 48.1784 74.0248 48.5671C74.0248 49.2067 74.3957 49.5225 75.1457 49.5225C75.694 49.5225 76.1778 49.2634 76.5971 48.7371V47.2553ZM153.88 48.9152C153.71 48.7452 153.509 48.6642 153.275 48.6642C153.041 48.6642 152.839 48.7452 152.67 48.9152C152.501 49.0853 152.42 49.2877 152.42 49.5225C152.42 49.7573 152.501 49.9598 152.67 50.1298C152.839 50.2999 153.041 50.3889 153.275 50.3889C153.509 50.3889 153.71 50.2999 153.88 50.1298C154.049 49.9598 154.13 49.7573 154.13 49.5225C154.13 49.2877 154.049 49.0853 153.88 48.9152ZM150.799 49.8302V50.3727C150.356 50.3727 150.033 50.308 149.816 50.1865C149.598 50.065 149.445 49.8545 149.348 49.563C148.912 50.1055 148.251 50.3808 147.364 50.3808C146.88 50.3808 146.469 50.2027 146.122 49.8545C145.776 49.5063 145.598 49.0691 145.598 48.5509C145.598 47.9274 145.872 47.4092 146.413 46.98C146.953 46.5509 147.646 46.3322 148.485 46.3322C148.711 46.3322 148.969 46.3808 149.259 46.478C149.259 45.4901 148.824 44.9962 147.937 44.9962C147.259 44.9962 146.743 45.1744 146.38 45.5468L145.921 44.6399C146.13 44.4699 146.413 44.3322 146.776 44.2108C147.138 44.0893 147.485 44.0327 147.816 44.0327C148.703 44.0327 149.34 44.2351 149.743 44.6399C150.146 45.0448 150.34 45.6845 150.34 46.5671V48.7614C150.34 49.2958 150.501 49.6602 150.815 49.8383L150.799 49.8302ZM149.243 47.2553C148.904 47.1825 148.662 47.142 148.525 47.142C147.977 47.142 147.534 47.2877 147.187 47.563C146.84 47.8464 146.671 48.1784 146.671 48.5671C146.671 49.2067 147.042 49.5225 147.792 49.5225C148.34 49.5225 148.824 49.2634 149.243 48.7371V47.2553ZM65.6627 49.8302V50.3727C65.2192 50.3727 64.8967 50.308 64.679 50.1865C64.4612 50.065 64.308 49.8545 64.2113 49.563C63.7758 50.1055 63.1146 50.3808 62.2276 50.3808C61.7438 50.3808 61.3325 50.2027 60.9858 49.8545C60.639 49.5063 60.4617 49.0691 60.4617 48.5509C60.4617 47.9274 60.7358 47.4092 61.2761 46.98C61.8164 46.5509 62.5098 46.3322 63.3485 46.3322C63.5742 46.3322 63.8323 46.3808 64.1226 46.478C64.1226 45.4901 63.6871 44.9962 62.8001 44.9962C62.1228 44.9962 61.6067 45.1744 61.2438 45.5468L60.7842 44.6399C60.9939 44.4699 61.2761 44.3322 61.639 44.2108C62.0018 44.0893 62.3486 44.0327 62.6792 44.0327C63.5662 44.0327 64.2032 44.2351 64.6064 44.6399C65.0096 45.0448 65.2031 45.6845 65.2031 46.5671V48.7614C65.2031 49.2958 65.3644 49.6602 65.6789 49.8383L65.6627 49.8302ZM64.0984 47.2553C63.7597 47.1825 63.5178 47.142 63.3807 47.142C62.8324 47.142 62.3889 47.2877 62.0421 47.563C61.6954 47.8464 61.5261 48.1784 61.5261 48.5671C61.5261 49.2067 61.897 49.5225 62.6469 49.5225C63.1952 49.5225 63.6791 49.2634 64.0984 48.7371V47.2553ZM47.9065 44.8667C48.3903 45.4254 48.6322 46.2027 48.6322 47.1905C48.6322 48.1784 48.3822 48.9557 47.8903 49.5225C47.3985 50.0893 46.7292 50.3808 45.8744 50.3808C45.0197 50.3808 44.3262 50.0893 43.8424 49.5144C43.3585 48.9395 43.1166 48.1622 43.1166 47.1905C43.1166 46.2189 43.3747 45.482 43.8746 44.8991C44.3826 44.3161 45.0519 44.0327 45.8744 44.0327C46.7453 44.0327 47.4226 44.308 47.9065 44.8667ZM47.4872 47.1905C47.4872 45.6764 46.9469 44.9152 45.8744 44.9152C45.3825 44.9152 44.9874 45.1177 44.6971 45.5225C44.4068 45.9274 44.2536 46.4861 44.2536 47.1905C44.2536 48.729 44.7939 49.4901 45.8744 49.4901C46.3824 49.4901 46.7775 49.2877 47.0598 48.8748C47.3501 48.4618 47.4872 47.9031 47.4872 47.1905ZM40.4798 41.895L38.6493 48.0084L36.6657 41.895H36.1496L34.5933 50.2675H35.6738L36.6415 44.891L38.5122 50.3889H38.7945L40.6169 44.891L41.6087 50.2675H42.6892L40.9959 41.895H40.4879H40.4798ZM58.7038 49.4659C58.3248 49.4659 58.0425 49.3606 57.8732 49.142C57.7039 48.9233 57.6152 48.559 57.6152 48.0408V45.0043H59.2924V44.146H57.6152V42.4456L56.5346 42.8667V44.146H55.825V45.0043H56.5346V48.478C56.5346 49.0286 56.704 49.482 57.0346 49.8383C57.3652 50.1946 57.7764 50.3808 58.2603 50.3808C58.7925 50.3808 59.2844 50.3242 59.7359 50.2108L59.5746 49.2553C59.2763 49.4011 58.9941 49.4659 58.7118 49.4659H58.7038ZM52.5995 44.0327C51.7932 44.0327 51.2045 44.3322 50.8497 44.9395L50.511 44.146H49.7692V50.2675H50.8497V45.7169C50.9949 45.4982 51.2045 45.3201 51.4706 45.1663C51.7367 45.0205 52.0028 44.9395 52.2447 44.9395C52.7044 44.9395 53.035 45.0691 53.2285 45.3282C53.422 45.5873 53.5188 46.0488 53.5188 46.6966V50.2594H54.5993V46.4699C54.5993 44.8424 53.9301 44.0246 52.5995 44.0246V44.0327ZM116.206 49.4659C115.577 49.4659 115.085 49.2796 114.738 48.899C114.384 48.5266 114.206 47.976 114.206 47.2634C114.206 46.5509 114.376 45.976 114.722 45.563C115.069 45.1501 115.537 44.9395 116.125 44.9395C116.391 44.9395 116.666 44.9881 116.948 45.0934C117.23 45.1905 117.424 45.2958 117.528 45.4092L118.061 44.6399C117.883 44.5023 117.617 44.3646 117.246 44.227C116.875 44.0974 116.537 44.0246 116.222 44.0246C115.246 44.0246 114.472 44.3161 113.908 44.9071C113.343 45.4982 113.061 46.2837 113.061 47.2553C113.061 48.227 113.335 48.9719 113.876 49.5306C114.416 50.0893 115.109 50.3727 115.94 50.3727C116.77 50.3727 117.512 50.1865 118.093 49.8059L117.666 48.891C117.174 49.2715 116.682 49.4578 116.198 49.4578L116.206 49.4659ZM137.341 49.4659C136.962 49.4659 136.68 49.3606 136.51 49.142C136.341 48.9233 136.252 48.559 136.252 48.0408V45.0043H137.93V44.146H136.252V42.4456L135.172 42.8667V44.146H134.462V45.0043H135.172V48.478C135.172 49.0286 135.341 49.482 135.672 49.8383C136.002 50.1946 136.414 50.3808 136.897 50.3808C137.43 50.3808 137.922 50.3242 138.373 50.2108L138.212 49.2553C137.914 49.4011 137.631 49.4659 137.349 49.4659H137.341ZM89.8861 50.8829H90.7731L90.6038 52.0003C88.612 52.0003 87.3138 51.4497 86.6929 50.3322C86.5719 50.3808 86.3219 50.4051 85.9349 50.4051C84.8866 50.4051 84.0641 49.9922 83.4674 49.1663C82.8707 48.3484 82.5723 47.2877 82.5723 46.0003C82.5723 44.7938 82.8787 43.7816 83.4755 42.9638C84.0802 42.146 84.8947 41.7412 85.9268 41.7412C87.088 41.7412 87.975 42.1136 88.5878 42.8667C89.2007 43.6197 89.5152 44.6642 89.5152 46.0003C89.5152 47.9274 88.9426 49.2472 87.7976 49.9598C88.2089 50.5671 88.9023 50.8748 89.878 50.8748L89.8861 50.8829ZM87.717 48.4861C88.1202 47.895 88.3217 47.061 88.3217 46.0084C88.3217 43.8545 87.5234 42.7695 85.9349 42.7695C85.2333 42.7695 84.6931 43.061 84.3221 43.6359C83.9512 44.2189 83.7738 45.0043 83.7738 46.0003C83.7738 46.9962 83.9593 47.7654 84.3383 48.4051C84.7173 49.0529 85.2495 49.3687 85.9349 49.3687C86.7171 49.3687 87.3138 49.0691 87.717 48.4699V48.4861ZM124.141 49.8302V50.3727C123.697 50.3727 123.375 50.308 123.157 50.1865C122.939 50.065 122.786 49.8545 122.689 49.563C122.254 50.1055 121.593 50.3808 120.706 50.3808C120.222 50.3808 119.811 50.2027 119.464 49.8545C119.117 49.5063 118.94 49.0691 118.94 48.5509C118.94 47.9274 119.214 47.4092 119.754 46.98C120.294 46.5509 120.988 46.3322 121.826 46.3322C122.052 46.3322 122.31 46.3808 122.601 46.478C122.601 45.4901 122.165 44.9962 121.278 44.9962C120.601 44.9962 120.085 45.1744 119.722 45.5468L119.262 44.6399C119.472 44.4699 119.754 44.3322 120.117 44.2108C120.48 44.0893 120.827 44.0327 121.157 44.0327C122.044 44.0327 122.681 44.2351 123.084 44.6399C123.488 45.0448 123.681 45.6845 123.681 46.5671V48.7614C123.681 49.2958 123.842 49.6602 124.157 49.8383L124.141 49.8302ZM122.584 47.2553C122.246 47.1825 122.004 47.142 121.867 47.142C121.318 47.142 120.875 47.2877 120.528 47.563C120.181 47.8464 120.012 48.1784 120.012 48.5671C120.012 49.2067 120.383 49.5225 121.133 49.5225C121.681 49.5225 122.165 49.2634 122.584 48.7371V47.2553ZM111.263 41.8302C111.078 41.8302 110.916 41.895 110.787 42.0246C110.658 42.1541 110.594 42.3161 110.594 42.5023C110.594 42.6885 110.658 42.8505 110.787 42.98C110.916 43.1096 111.078 43.1744 111.255 43.1744C111.432 43.1744 111.602 43.1096 111.731 42.98C111.86 42.8505 111.924 42.6885 111.924 42.5023C111.924 42.3161 111.86 42.1622 111.731 42.0327C111.602 41.9031 111.44 41.8383 111.255 41.8383L111.263 41.8302ZM130.1 41.895H128.963V50.2675H133.874V49.2391H130.108V41.895H130.1ZM143.268 41.6359H144.348V50.2594H143.268V49.8059C142.889 50.1784 142.349 50.3727 141.631 50.3727C140.865 50.3727 140.252 50.0974 139.776 49.5468C139.3 48.9962 139.067 48.2675 139.067 47.3525C139.067 46.4375 139.341 45.6521 139.889 44.9962C140.437 44.3484 141.083 44.0246 141.841 44.0246C142.47 44.0246 142.953 44.1703 143.276 44.4699V41.6278L143.268 41.6359ZM143.268 45.563C142.994 45.1501 142.623 44.9476 142.147 44.9476C141.566 44.9476 141.099 45.1663 140.736 45.6035C140.373 46.0408 140.196 46.5914 140.196 47.2634C140.196 48.7371 140.865 49.4739 142.195 49.4739C142.365 49.4739 142.574 49.4173 142.808 49.312C143.05 49.2067 143.195 49.0934 143.26 48.9638V45.5711L143.268 45.563ZM109.828 45.061H110.666V50.2675H111.747V44.146H109.828V45.061ZM96.829 45.061H97.6676V50.2675H98.7642V44.146H96.829V45.061ZM94.5872 48.4456C94.4905 48.7128 94.2969 48.9557 93.9986 49.1582C93.7002 49.3606 93.3777 49.4659 93.0229 49.4659C92.2085 49.4659 91.7972 48.9962 91.7972 48.0488V44.146H90.7167V48.1622C90.7167 48.8667 90.8941 49.4173 91.2489 49.8059C91.6037 50.1865 92.1117 50.3808 92.781 50.3808C93.1277 50.3808 93.4825 50.2756 93.8534 50.0812C94.2163 49.8788 94.4663 49.6602 94.5872 49.4173V50.2675H95.6678V44.146H94.5872V48.4456ZM106.626 44.0327C106.28 44.0327 105.941 44.1136 105.61 44.2675C105.28 44.4213 105.054 44.6156 104.933 44.8505C104.586 44.308 103.973 44.0327 103.103 44.0327C102.474 44.0327 101.957 44.308 101.538 44.8586L101.183 44.146H100.482V50.2675H101.562V45.7493C101.667 45.5468 101.837 45.3606 102.086 45.1905C102.328 45.0205 102.562 44.9395 102.78 44.9395C103.151 44.9395 103.449 45.0286 103.675 45.1986C103.901 45.3687 104.014 45.6116 104.014 45.9112V50.2594H105.094V45.7331C105.175 45.5225 105.336 45.3444 105.562 45.1825C105.788 45.0205 106.038 44.9395 106.296 44.9395C107.126 44.9395 107.538 45.4254 107.538 46.3889V50.2675H108.618V46.1703C108.618 45.4901 108.449 44.9638 108.102 44.5914C107.755 44.2189 107.271 44.0327 106.642 44.0327H106.626ZM97.3612 42.9233H98.1595L99.4497 41.0205H98.3288L97.3612 42.9233Z" fill="#04192F"/>
</svg>
