<?xml version="1.0" encoding="UTF-8"?>
<svg id="Camada_1" xmlns="http://www.w3.org/2000/svg" version="1.1" viewBox="0 0 160 52">
  <!-- Generator: Adobe Illustrator 30.3.0, SVG Export Plug-In . SVG Version: 2.1.3 Build 182)  -->
  <defs>
    <style>
      .st0 {
        fill-rule: evenodd;
      }

      .st0, .st1 {
        fill: #fff;
      }
    </style>
  </defs>
  <path class="st0" d="M154.1,35.2v2.9H0v-2.9h154.1Z"/>
  <path class="st1" d="M159.6,5.6c-.2-.4-.6-.8-1-1-.4-.2-.9-.3-1.3-.3s-.9.1-1.3.3c-.4.2-.7.6-1,1-.2.4-.4.9-.4,1.3s.1.9.3,1.3c.2.4.6.7,1,1,.4.2.9.4,1.3.4s.9-.1,1.3-.4c.4-.2.7-.6,1-1,.2-.4.3-.9.3-1.3s-.1-.9-.4-1.3h0ZM159.2,8c-.2.3-.5.6-.8.8-.3.2-.7.3-1.1.3s-.7,0-1.1-.3c-.3-.2-.6-.5-.8-.8-.2-.3-.3-.7-.3-1.1s0-.7.3-1.1c.2-.3.5-.6.8-.8.3-.2.7-.3,1-.3s.7,0,1,.3c.3.2.6.4.8.8.2.3.3.7.3,1.1s0,.7-.3,1.1h0ZM75.4,11.4c.4,1.2.6,2.7.6,4.3v15.3c0,.2,0,.3,0,.5,0,.1-.1.3-.2.4-.1.1-.2.2-.4.3-.1,0-.3.1-.4.1h-3.6c-.2,0-.3,0-.5-.1-.1,0-.2-.2-.4-.3,0-.1-.2-.3-.2-.4,0-.1,0-.3,0-.4v-15.3c0-.5,0-1,0-1.5,0-.4-.1-.8-.3-1.1-.1-.3-.2-.6-.4-.8-.2-.2-.4-.4-.6-.5-.2-.1-.6-.2-.9-.3-.4,0-.8-.1-1.3-.1s-1.2,0-1.8.1c-.5,0-1.1.2-1.7.3v19.1c0,.2,0,.3,0,.5,0,.1-.1.3-.2.4-.1.1-.2.2-.4.3-.1,0-.3,0-.5,0h-3.6c-.2,0-.3,0-.5-.1-.1,0-.3-.2-.4-.3,0-.1-.2-.3-.2-.4,0-.1,0-.3,0-.4V8.5c0-.3,0-.6.3-.8.2-.2.4-.3.7-.4.7-.2,1.3-.4,2-.5.7-.2,1.5-.3,2.2-.4.8-.1,1.5-.2,2.2-.3.7,0,1.4,0,2,0,3.2,0,5.5.8,7,2.3.8.8,1.3,1.8,1.7,3h0ZM53.1,11.4c-.4-.8-.8-1.6-1.4-2.3-.6-.7-1.2-1.2-1.9-1.7-.7-.5-1.5-.8-2.4-1.1-.9-.2-1.8-.3-2.9-.3s-2,.1-2.8.3c-.9.2-1.7.6-2.4,1.1-.7.5-1.4,1-1.9,1.7-.6.7-1,1.4-1.4,2.3-.4.8-.6,1.7-.8,2.7-.2.9-.3,1.9-.3,2.9v4.6c0,1,0,2,.3,3,.2.9.5,1.8.8,2.7.4.8.8,1.6,1.4,2.2.6.7,1.2,1.2,1.9,1.7.7.5,1.5.8,2.4,1.1.9.2,1.8.3,2.8.3s2-.1,2.9-.3c.9-.2,1.7-.6,2.4-1.1.7-.5,1.4-1,1.9-1.7.5-.7,1-1.4,1.4-2.3.4-.8.7-1.7.8-2.6.2-.9.3-1.9.3-3v-4.6c0-1,0-2-.3-3-.2-.9-.5-1.8-.8-2.6ZM48.3,21.6c0,.9,0,1.6-.3,2.3-.2.7-.4,1.2-.8,1.7-.3.5-.7.8-1.2,1.1-.5.2-1,.4-1.7.4s-1.2-.1-1.6-.4c-.5-.2-.9-.6-1.2-1.1-.3-.5-.6-1.1-.8-1.7-.2-.7-.3-1.4-.3-2.3v-4.6c0-.9,0-1.6.3-2.3.2-.7.4-1.2.8-1.7.3-.5.7-.8,1.2-1.1.5-.2,1-.4,1.7-.4s1.2.1,1.7.4.9.6,1.2,1.1c.3.5.6,1.1.8,1.7.2.7.3,1.4.3,2.3v4.6h0ZM31.3,11.4c.4,1.2.6,2.7.6,4.3v15.3c0,.2,0,.3,0,.5,0,.1-.1.3-.2.4-.1.1-.2.2-.4.3-.1,0-.3.1-.4.1h-3.6c-.2,0-.3,0-.5-.1-.1,0-.2-.2-.3-.3,0-.1-.2-.3-.2-.4,0-.1,0-.3,0-.4v-15.3c0-.5,0-1,0-1.5,0-.4-.1-1-.3-1.3-.1-.3-.2-.6-.4-.8-.2-.2-.4-.4-.6-.5-.2-.1-.6-.2-.9-.3-.4,0-.8-.1-1.3-.1s-1.2,0-2,.1c-.6.1-.9.3-1.5.5,0,0-.2.1-.4.3.2,1,.3,2.2.3,3.5v15.3c0,.2,0,.3,0,.5,0,.1-.1.3-.2.4-.1.1-.2.2-.4.3-.1,0-.3.1-.4.1h-3.6c-.2,0-.3,0-.5-.1-.1,0-.2-.2-.4-.3,0-.1-.2-.3-.2-.4,0-.1,0-.3,0-.4v-15.3c0-.5,0-1,0-1.5,0-.4-.1-.8-.3-1.1-.1-.3-.2-.6-.4-.8-.2-.2-.4-.4-.6-.5-.2-.1-.6-.2-.9-.3-.4,0-.8-.1-1.3-.1s-1.2,0-1.8.1c-.5,0-1.1.2-1.7.3v19.1c0,.2,0,.3,0,.5,0,.1-.1.3-.2.4-.1.1-.2.2-.4.3-.1,0-.3,0-.5,0H1.2c-.2,0-.3,0-.5-.1-.1,0-.2-.2-.4-.3,0-.1-.2-.3-.2-.4,0-.1,0-.3,0-.4V8.5c0-.3,0-.6.3-.8.2-.2.4-.3.7-.5.7-.2,1.2-.4,1.9-.6.8-.2,1.6-.4,2.3-.5.8-.1,1.5-.2,2.2-.3.7,0,1.4,0,2,0,2.3,0,4.2.5,5.6,1.4.7-.4,1.7-.8,2.3-1,.7-.2,2.3-.6,3-.7.7,0,1.6-.1,2.3-.1,3.2,0,5.3,1.3,6.8,2.8.8.8,1.3,1.8,1.7,3ZM153.2,9.7c-.3-.6-.8-1.2-1.2-1.7-.5-.5-1-.9-1.7-1.2-.6-.3-1.3-.5-2-.7-.7-.2-1.5-.2-2.4-.2s-1.4,0-2.1.1c-.7,0-1.3.2-1.9.3-.6.1-1.2.3-1.7.5-.5.2-1,.3-1.4.5-.2,0-.3.2-.4.3-.1,0-.2.2-.3.3,0,.1-.1.2-.2.4,0,.1,0,.3,0,.5v2.6c0,.4.1.7.3.9.2.2.5.2.9.1h0c1-.4,2.1-.6,3.1-.8,1-.2,2-.3,3.1-.3s1.1,0,1.5.2c.4.1.7.3.9.5.2.2.4.5.5.9.1.4.2.9.2,1.6v1.9h-2.4c-.9,0-1.7,0-2.4.1-.7,0-1.4.2-2,.3-.6.2-1.2.3-1.7.6-.5.2-.9.5-1.3.8-.4.3-.7.7-1,1.1-.3.4-.5.8-.7,1.3-.3.9-.5,2-.5,3.4v.2c0,.9,0,2.5.3,3.2.2.7.4,1.4.8,1.9.3.6.8,1,1.3,1.4.5.4,1.2.7,1.9,1,.7.3,1.5.4,2.4.6.9.1,1.9.2,3,.2s1.5,0,2.2,0c.7,0,1.3-.1,1.8-.2.6,0,1.1-.2,1.7-.3.6-.1,1.1-.3,1.7-.5.1,0,.3,0,.4-.2.1,0,.2-.2.3-.3,0,0,0-.2.1-.4,0-.1,0-.3,0-.4v-15.7c0-.9,0-1.7-.2-2.5-.2-.8-.4-1.5-.8-2.1h0ZM148.3,27.2c-.3,0-.6.1-1,.2-.4,0-1.3,0-1.9,0s-1,0-1.4,0c-.4,0-.7-.1-1-.2-.2,0-.5-.2-.6-.3-.2-.1-.3-.3-.4-.4-.2-.4-.3-1.7-.3-2.5v-.3c0-.4,0-.8,0-1.1,0-.3.1-.6.2-.8,0-.2.2-.4.3-.5.2-.1.4-.3.6-.4.5-.2,1.4-.3,2.5-.3h2.8v6.5h0ZM132.7,11.2c.4,1.2.6,2.7.6,4.3v15.3c0,.2,0,.3,0,.5,0,.1-.1.3-.2.4-.1.1-.2.2-.4.3-.1,0-.3.1-.4.1h-3.6c-.2,0-.3,0-.5-.1-.1,0-.2-.2-.3-.3,0-.1-.2-.3-.2-.4,0-.1,0-.3,0-.4v-15.3c0-.5,0-1,0-1.5,0-.4-.1-.8-.3-1.1-.1-.3-.2-.6-.4-.8-.2-.2-.4-.4-.6-.5-.2-.1-.6-.2-.9-.3-.4,0-.8-.1-1.3-.1s-1.2,0-1.8.1c-.5,0-1.1.2-1.7.3v19.1c0,.2,0,.3,0,.5,0,.1-.1.3-.2.4-.1.1-.2.2-.4.3-.1,0-.3,0-.5,0h-3.6c-.2,0-.3,0-.5-.1-.1,0-.3-.2-.4-.3,0-.1-.2-.3-.2-.4,0-.1,0-.3,0-.4V8.3c0-.3,0-.6.3-.8.2-.2.4-.3.7-.4.7-.2,1.3-.4,2.1-.5.7-.2,1.5-.3,2.2-.4.8-.1,1.5-.2,2.2-.3.7,0,1.4,0,2,0,3.2,0,5.5.8,7,2.3.8.8,1.3,1.8,1.7,3h0ZM92.7,28.5v2.7c0,.3,0,.6-.3.8-.2.2-.4.3-.7.3,0,0-1.5,0-1.6,0-.5,0-1,0-1.5,0-5.7,0-6.6-1.8-6.6-7v-14.3h-3c-.1-.1-.6-.2-.8-.4-.2-.2-.3-.5-.3-.8v-2.5c0-.2,0-.3,0-.5,0-.1.1-.3.2-.4.1-.1.2-.2.4-.3.1,0,.3,0,.4,0h2.9V1.9c0-.3,0-.6.3-.8.2-.2.4-.3.8-.4L86.5,0h.2C87.1,0,87.3,0,87.5.3c.2.2.2.4.2.7v5.3h3.6c.2,0,.3,0,.5,0,.1,0,.3.1.4.3.1.1.2.2.2.4,0,.1,0,.3,0,.5v2.5c0,.2,0,.3,0,.5,0,.1-.1.3-.2.4-.1.1-.2.2-.4.3-.1,0-.3,0-.4,0h-3.6v14.2c0,.5,0,.9,0,1.2,0,.3,0,.5.1.6.2.2.8.2,1,.2h2.5c.3,0,.6,0,.8.2.2.2.4.5.4.8h0ZM110.5,9.7c-.3-.6-.8-1.2-1.2-1.7-.5-.5-1-.9-1.7-1.2-.6-.3-1.3-.5-2.1-.7-.7-.2-1.5-.2-2.4-.2s-1.4,0-2.1.1c-.7,0-1.3.2-1.9.3-.6.1-1.2.3-1.7.5-.5.2-1,.3-1.4.5-.2,0-.3.2-.4.3-.1,0-.2.2-.3.3,0,.1-.2.2-.2.4,0,.1,0,.3,0,.5v2.6c0,.9.4,1.3,1.3,1h0c1-.4,2.1-.6,3.1-.8,1-.2,2-.3,3.1-.3s1.1,0,1.5.2c.4.1.7.3.9.5.2.2.4.5.5.9.1.4.2.9.2,1.6v1.9h-2.4c-.9,0-1.7,0-2.4.1-.7,0-1.4.2-2,.3-.6.2-1.2.3-1.7.6-.5.2-.9.5-1.3.8-.4.3-.7.7-1,1.1-.3.4-.5.8-.7,1.3-.3.9-.5,2-.5,3.4v.2c0,.9,0,2.5.3,3.2.2.7.4,1.4.8,1.9.4.6.8,1,1.3,1.4.5.4,1.2.7,1.9,1,.7.3,1.5.4,2.4.6.9.1,1.9.2,3,.2s1.5,0,2.2,0c.7,0,1.3-.1,1.8-.2.6,0,1.1-.2,1.7-.3.6-.1,1.2-.3,1.7-.5.1,0,.3,0,.4-.2.1,0,.2-.2.3-.3,0-.2.1-.4.1-.8v-15.7c0-.9,0-1.7-.2-2.5-.2-.8-.4-1.5-.8-2.1h0ZM105.7,27.2c-.3,0-.6.1-.9.2-.4,0-1.3,0-1.9,0s-1,0-1.4,0c-.4,0-.7-.1-1-.2-.2,0-.5-.2-.6-.3-.2-.1-.3-.3-.4-.4-.2-.4-.3-1.7-.3-2.5v-.3c0-.4,0-.8,0-1.1,0-.3.1-.6.2-.8,0-.2.2-.4.3-.5.2-.1.4-.3.6-.4.5-.2,1.4-.3,2.5-.3h2.8v6.5h0ZM158.1,7.4c0-.1-.1-.2-.2-.2,0,0-.1,0-.2-.1.2,0,.4-.1.6-.3.1-.1.2-.3.2-.5s0-.3-.1-.4c0-.1-.2-.2-.3-.3-.1,0-.2,0-.4-.1h-1.5v2.8h.6v-1.2h.1c.2,0,.3,0,.4.1.1,0,.2.3.4.6l.2.5h.7l-.3-.6c-.1-.2-.2-.3-.2-.3h0ZM157.6,6.7c0,0-.3,0-.6,0h-.2v-.8h.2c.3,0,.5,0,.6,0,0,0,.1,0,.2.1,0,0,0,.1,0,.2s0,.2,0,.2c0,0-.1.1-.2.1Z"/>
  <path class="st1" d="M71.7,46.5v3.8h-1.1v-3.6c0-.7,0-1.1-.3-1.4-.2-.3-.5-.4-1-.4s-.5,0-.8.2c-.3.1-.5.3-.6.6v4.6h-1.1v-6.1h.7l.3.8c.4-.6.9-.9,1.7-.9,1.3,0,2,.8,2,2.4h0ZM78.2,49.8v.5c-.4,0-.8,0-1-.2-.2-.1-.4-.3-.5-.6-.4.5-1.1.8-2,.8s-.9-.2-1.2-.5c-.3-.3-.5-.8-.5-1.3s.3-1.1.8-1.6c.5-.4,1.2-.6,2.1-.6s.5,0,.8.1c0-1-.4-1.5-1.3-1.5s-1.2.2-1.6.6l-.5-.9c.2-.2.5-.3.9-.4.4-.1.7-.2,1-.2.9,0,1.5.2,1.9.6.4.4.6,1,.6,1.9v2.2c0,.5.2.9.5,1.1h0ZM76.6,47.3c-.3,0-.6-.1-.7-.1-.5,0-1,.1-1.3.4-.3.3-.5.6-.5,1,0,.6.4,1,1.1,1s1-.3,1.5-.8v-1.5ZM153.9,48.9c-.2-.2-.4-.3-.6-.3s-.4,0-.6.3c-.2.2-.2.4-.2.6s0,.4.2.6c.2.2.4.3.6.3s.4,0,.6-.3c.2-.2.2-.4.2-.6s0-.4-.2-.6ZM150.8,49.8v.5c-.4,0-.8,0-1-.2-.2-.1-.4-.3-.5-.6-.4.5-1.1.8-2,.8s-.9-.2-1.2-.5c-.3-.3-.5-.8-.5-1.3s.3-1.1.8-1.6c.5-.4,1.2-.6,2.1-.6s.5,0,.8.1c0-1-.4-1.5-1.3-1.5s-1.2.2-1.6.6l-.5-.9c.2-.2.5-.3.9-.4.4-.1.7-.2,1-.2.9,0,1.5.2,1.9.6.4.4.6,1,.6,1.9v2.2c0,.5.2.9.5,1.1h0ZM149.2,47.3c-.3,0-.6-.1-.7-.1-.5,0-1,.1-1.3.4-.3.3-.5.6-.5,1,0,.6.4,1,1.1,1s1-.3,1.5-.8v-1.5ZM65.7,49.8v.5c-.4,0-.8,0-1-.2-.2-.1-.4-.3-.5-.6-.4.5-1.1.8-2,.8s-.9-.2-1.2-.5c-.3-.3-.5-.8-.5-1.3s.3-1.1.8-1.6c.5-.4,1.2-.6,2.1-.6s.5,0,.8.1c0-1-.4-1.5-1.3-1.5s-1.2.2-1.6.6l-.5-.9c.2-.2.5-.3.9-.4.4-.1.7-.2,1-.2.9,0,1.5.2,1.9.6.4.4.6,1,.6,1.9v2.2c0,.5.2.9.5,1.1h0ZM64.1,47.3c-.3,0-.6-.1-.7-.1-.5,0-1,.1-1.3.4-.3.3-.5.6-.5,1,0,.6.4,1,1.1,1s1-.3,1.5-.8v-1.5ZM47.9,44.9c.5.6.7,1.3.7,2.3s-.2,1.8-.7,2.3c-.5.6-1.2.9-2,.9s-1.5-.3-2-.9c-.5-.6-.7-1.4-.7-2.3s.3-1.7.8-2.3c.5-.6,1.2-.9,2-.9s1.5.3,2,.8ZM47.5,47.2c0-1.5-.5-2.3-1.6-2.3s-.9.2-1.2.6c-.3.4-.4,1-.4,1.7,0,1.5.5,2.3,1.6,2.3s.9-.2,1.2-.6c.3-.4.4-1,.4-1.7ZM40.5,41.9l-1.8,6.1-2-6.1h-.5l-1.6,8.4h1.1l1-5.4,1.9,5.5h.3l1.8-5.5,1,5.4h1.1l-1.7-8.4h-.5ZM58.7,49.5c-.4,0-.7-.1-.8-.3-.2-.2-.3-.6-.3-1.1v-3h1.7v-.9h-1.7v-1.7l-1.1.4v1.3h-.7v.9h.7v3.5c0,.6.2,1,.5,1.4s.7.5,1.2.5,1,0,1.5-.2l-.2-1c-.3.1-.6.2-.9.2h0ZM52.6,44c-.8,0-1.4.3-1.7.9l-.3-.8h-.7v6.1h1.1v-4.6c.1-.2.4-.4.6-.6.3-.1.5-.2.8-.2.5,0,.8.1,1,.4.2.3.3.7.3,1.4v3.6h1.1v-3.8c0-1.6-.7-2.4-2-2.4h0ZM116.2,49.5c-.6,0-1.1-.2-1.5-.6-.4-.4-.5-.9-.5-1.6s.2-1.3.5-1.7c.3-.4.8-.6,1.4-.6s.5,0,.8.2c.3,0,.5.2.6.3l.5-.8c-.2-.1-.4-.3-.8-.4-.4-.1-.7-.2-1-.2-1,0-1.8.3-2.3.9-.6.6-.8,1.4-.8,2.3s.3,1.7.8,2.3c.5.6,1.2.8,2.1.8s1.6-.2,2.2-.6l-.4-.9c-.5.4-1,.6-1.5.6h0ZM137.3,49.5c-.4,0-.7-.1-.8-.3-.2-.2-.3-.6-.3-1.1v-3h1.7v-.9h-1.7v-1.7l-1.1.4v1.3h-.7v.9h.7v3.5c0,.6.2,1,.5,1.4.3.4.7.5,1.2.5s1,0,1.5-.2l-.2-1c-.3.1-.6.2-.9.2h0ZM89.9,50.9h.9l-.2,1.1c-2,0-3.3-.6-3.9-1.7-.1,0-.4,0-.8,0-1,0-1.9-.4-2.5-1.2-.6-.8-.9-1.9-.9-3.2s.3-2.2.9-3c.6-.8,1.4-1.2,2.5-1.2s2,.4,2.7,1.1c.6.8.9,1.8.9,3.1,0,1.9-.6,3.2-1.7,4,.4.6,1.1.9,2.1.9h0ZM87.7,48.5c.4-.6.6-1.4.6-2.5,0-2.2-.8-3.2-2.4-3.2s-1.2.3-1.6.9c-.4.6-.5,1.4-.5,2.4s.2,1.8.6,2.4c.4.6.9,1,1.6,1s1.4-.3,1.8-.9h0ZM124.1,49.8v.5c-.4,0-.8,0-1-.2-.2-.1-.4-.3-.5-.6-.4.5-1.1.8-2,.8s-.9-.2-1.2-.5c-.3-.3-.5-.8-.5-1.3s.3-1.1.8-1.6c.5-.4,1.2-.6,2.1-.6s.5,0,.8.1c0-1-.4-1.5-1.3-1.5s-1.2.2-1.6.6l-.5-.9c.2-.2.5-.3.9-.4.4-.1.7-.2,1-.2.9,0,1.5.2,1.9.6.4.4.6,1,.6,1.9v2.2c0,.5.2.9.5,1.1h0ZM122.6,47.3c-.3,0-.6-.1-.7-.1-.5,0-1,.1-1.3.4-.3.3-.5.6-.5,1,0,.6.4,1,1.1,1s1-.3,1.5-.8v-1.5ZM111.3,41.8c-.2,0-.3,0-.5.2-.1.1-.2.3-.2.5s0,.3.2.5c.1.1.3.2.5.2s.3,0,.5-.2c.1-.1.2-.3.2-.5s0-.3-.2-.5c-.1-.1-.3-.2-.5-.2h0ZM130.1,41.9h-1.1v8.4h4.9v-1h-3.8v-7.3h0ZM143.3,41.6h1.1v8.6h-1.1v-.5c-.4.4-.9.6-1.6.6s-1.4-.3-1.9-.8c-.5-.6-.7-1.3-.7-2.2s.3-1.7.8-2.4c.5-.6,1.2-1,2-1s1.1.1,1.4.4v-2.8h0ZM143.3,45.6c-.3-.4-.6-.6-1.1-.6s-1,.2-1.4.7c-.4.4-.5,1-.5,1.7,0,1.5.7,2.2,2,2.2s.4,0,.6-.2c.2-.1.4-.2.5-.3v-3.4h0ZM109.8,45.1h.8v5.2h1.1v-6.1h-1.9v.9ZM96.8,45.1h.8v5.2h1.1v-6.1h-1.9v.9ZM94.6,48.4c0,.3-.3.5-.6.7-.3.2-.6.3-1,.3-.8,0-1.2-.5-1.2-1.4v-3.9h-1.1v4c0,.7.2,1.3.5,1.6.4.4.9.6,1.5.6s.7-.1,1.1-.3c.4-.2.6-.4.7-.7v.9h1.1v-6.1h-1.1v4.3ZM106.6,44c-.3,0-.7,0-1,.2-.3.2-.6.3-.7.6-.3-.5-1-.8-1.8-.8s-1.1.3-1.6.8l-.4-.7h-.7v6.1h1.1v-4.5c.1-.2.3-.4.5-.6.2-.2.5-.3.7-.3.4,0,.7,0,.9.3.2.2.3.4.3.7v4.3h1.1v-4.5c0-.2.2-.4.5-.6.2-.2.5-.2.7-.2.8,0,1.2.5,1.2,1.4v3.9h1.1v-4.1c0-.7-.2-1.2-.5-1.6-.3-.4-.8-.6-1.5-.6h0ZM97.4,42.9h.8l1.3-1.9h-1.1l-1,1.9Z"/>
</svg>