<svg width="48" height="48" viewBox="0 0 48 48" fill="none" xmlns="http://www.w3.org/2000/svg">
<circle cx="24" cy="24" r="24" fill="white"/>
<path d="M35.5797 18.4346C35.8599 19.3582 36 20.447 36 21.7009V33.2491C36 33.3653 35.9756 33.4816 35.933 33.5916C35.8964 33.6895 35.8355 33.7874 35.7564 33.8791C35.6771 33.977 35.5858 34.0504 35.4884 34.1055C35.3848 34.1604 35.2691 34.1849 35.1533 34.1849H32.4122C32.2904 34.1849 32.1746 34.1604 32.0711 34.1055C31.9736 34.0504 31.8822 33.977 31.8092 33.873C31.736 33.7812 31.6812 33.6834 31.6447 33.5855C31.602 33.4754 31.5837 33.3653 31.5837 33.2491V21.7253C31.5837 21.3155 31.5594 20.9485 31.5167 20.6243C31.4741 20.3063 31.4071 19.872 31.3218 19.6396C31.2427 19.4133 31.133 19.2236 30.999 19.0646C30.865 18.9055 30.7066 18.7771 30.5238 18.6792C30.3351 18.5753 30.1035 18.4957 29.8355 18.4468C29.5553 18.3917 29.2325 18.3673 28.867 18.3673C28.4163 18.3673 27.9472 18.3612 27.3746 18.4774C26.9239 18.5692 26.7229 18.6853 26.266 18.8811C26.266 18.8811 26.1259 18.9606 25.9492 19.0707C26.1198 19.8475 26.2111 20.7222 26.2111 21.707V33.2552C26.2111 33.3714 26.1868 33.4876 26.1441 33.5977C26.1015 33.6956 26.0467 33.7935 25.9675 33.8853C25.8884 33.9831 25.797 34.0565 25.6995 34.1116C25.5959 34.1666 25.4802 34.191 25.3645 34.191H22.6233C22.5015 34.191 22.3919 34.1666 22.2822 34.1116C22.1848 34.0565 22.0934 33.9831 22.0142 33.8791C21.9411 33.7874 21.8863 33.6895 21.8497 33.5916C21.8132 33.4816 21.7888 33.3714 21.7888 33.2552V21.7314C21.7888 21.3216 21.7644 20.9547 21.7218 20.6304C21.6792 20.3124 21.6122 20.0371 21.5269 19.8047C21.4477 19.5845 21.3381 19.3888 21.2041 19.2298C21.0701 19.0707 20.9117 18.9423 20.7289 18.8444C20.5401 18.7404 20.3086 18.667 20.0406 18.6119C19.7604 18.5569 19.4376 18.5325 19.0721 18.5325C18.6213 18.5325 18.1645 18.5569 17.6893 18.618C17.2751 18.667 16.8487 18.7343 16.4101 18.826V33.2614C16.4101 33.3837 16.3919 33.506 16.3553 33.6161C16.3188 33.7262 16.2579 33.8302 16.1787 33.9158C16.0995 34.0076 16.0081 34.081 15.9046 34.1299C15.801 34.1788 15.6853 34.2033 15.5635 34.2033H12.8406C12.7188 34.2033 12.603 34.1788 12.4934 34.1238C12.3898 34.0687 12.3046 33.9953 12.2254 33.8975C12.1523 33.7996 12.0975 33.7017 12.0609 33.6039C12.0183 33.4937 12 33.3837 12 33.2674V16.2632C12 16.0368 12.0731 15.8411 12.2193 15.6821C12.3533 15.5414 12.5482 15.4191 12.7858 15.3334C13.2853 15.1499 13.6934 15.0215 14.2294 14.8869C14.8081 14.734 15.4416 14.5872 16.002 14.5016C16.5807 14.4159 17.135 14.3487 17.665 14.3058C18.201 14.263 18.7127 14.2385 19.2061 14.2385C20.9543 14.2385 22.3553 14.6361 23.4274 15.3028C23.9757 15.0031 24.6883 14.7279 25.1452 14.575C25.6691 14.3915 26.9117 14.1223 27.4477 14.0795C27.9838 14.0367 28.666 14 29.1533 14C31.5533 14 33.1492 14.9848 34.2883 16.1469C34.8609 16.7341 35.2934 17.4988 35.5797 18.4346Z" fill="#04192F"/>
</svg>
